<?xml version="1.0" encoding="UTF-8" standalone="no"?>
	<!DOCTYPE svg PUBLIC "-//W3C//DTD SVG 1.1//EN" "http://www.w3.org/Graphics/SVG/1.1/DTD/svg11.dtd">
	<svg
		width="100%"
		height="100%"
		viewBox="0 0 102 102"
		version="1.1"
		style="fill-rule:evenodd;clip-rule:evenodd;stroke-linejoin:round;stroke-miterlimit:2;">
			<path
				d="M50.905,0c28.095,0 50.904,22.81 50.904,50.905c0,28.095 -22.809,50.904 -50.904,50.904c-28.095,0 -50.905,-22.809 -50.905,-50.904c0,-28.095 22.81,-50.905 50.905,-50.905Zm-0,19.405c-17.388,-0 -31.5,14.112 -31.5,31.5c-0,17.388 14.112,31.5 31.5,31.5l15.75,-0l-0,-6.3l-15.75,-0c-13.671,-0 -25.2,-11.529 -25.2,-25.2c-0,-13.671 11.529,-25.2 25.2,-25.2c13.671,-0 25.2,11.529 25.2,25.2l-0,4.504c-0,2.489 -2.237,4.946 -4.725,4.946c-2.489,-0 -4.725,-2.457 -4.725,-4.946l-0,-4.504c-0,-8.694 -7.056,-15.75 -15.75,-15.75c-8.694,-0 -15.75,7.056 -15.75,15.75c-0,8.694 7.056,15.75 15.75,15.75c4.347,-0 8.316,-1.764 11.151,-4.631c2.047,2.804 5.575,4.631 9.324,4.631c6.205,-0 11.025,-5.04 11.025,-11.246l-0,-4.504c-0,-17.388 -14.112,-31.5 -31.5,-31.5Zm-0,40.95c-5.229,-0 -9.45,-4.221 -9.45,-9.45c-0,-5.229 4.221,-9.45 9.45,-9.45c5.229,-0 9.45,4.221 9.45,9.45c-0,5.229 -4.221,9.45 -9.45,9.45Z"
			/>
	</svg>
