<?xml version="1.0" encoding="UTF-8" standalone="no"?><!DOCTYPE svg PUBLIC "-//W3C//DTD SVG 1.1//EN" "http://www.w3.org/Graphics/SVG/1.1/DTD/svg11.dtd"><svg width="100%" height="100%" viewBox="0 0 124 91" version="1.1" style="fill-rule:evenodd;clip-rule:evenodd;stroke-linejoin:round;stroke-miterlimit:2;"><path d="M0.12,25.56l0,46.738c-0,4.796 1.905,9.395 5.296,12.786c3.391,3.391 7.99,5.296 12.786,5.296l86.716,0c4.796,0 9.395,-1.905 12.786,-5.296c3.391,-3.391 5.296,-7.99 5.296,-12.786l0,-46.738l-57.63,35.118c-2.34,1.426 -5.28,1.426 -7.62,0l-57.63,-35.118Zm0.474,-11.471l60.966,37.151l60.966,-37.151c-0.761,-3.258 -2.418,-6.269 -4.822,-8.673c-3.391,-3.391 -7.99,-5.296 -12.786,-5.296l-86.716,0c-4.796,-0 -9.395,1.905 -12.786,5.296c-2.404,2.404 -4.061,5.415 -4.822,8.673Z" style="fill:#030000;"/></svg>
